<?xml version="1.0" encoding="UTF-8"?>
<!DOCTYPE svg PUBLIC "-//W3C//DTD SVG 1.1//EN" "http://www.w3.org/Graphics/SVG/1.1/DTD/svg11.dtd">
<svg xmlns="http://www.w3.org/2000/svg" xml:space="preserve" width="192px" height="192px" version="1.1" style="shape-rendering:geometricPrecision; text-rendering:geometricPrecision; image-rendering:optimizeQuality; fill-rule:evenodd; clip-rule:evenodd"
viewBox="0 0 192 192"
 xmlns:xlink="http://www.w3.org/1999/xlink">
 <defs>
  <style type="text/css">
   <![CDATA[
    .fil0 {fill:#7F54B3}
    .fil1 {fill:white}
    .fil2 {fill:white}
   ]]>
  </style>
 </defs>
 <g id="layer_x0020_1">
  <path class="fil0" d="M33.66 5.48l153.6 0 0 153.6c0,15.84 -12.96,28.8 -28.8,28.8l-153.6 0 0 -153.6c0,-15.84 12.96,-28.8 28.8,-28.8z"/>
  <path class="fil1" d="M90.91 28.86l0.77 0 65.03 0c3.17,0 5.76,2.59 5.76,5.76l0 122.76c0,3.17 -2.59,5.76 -5.76,5.76l-65.03 0 -0.77 0 -26.75 0 0 -134.28 26.75 0z"/>
  <g id="_1957788742208">
   <path class="fil2" d="M41.63 28.86l20.49 0 0 134.28 -20.49 0c-3.17,0 -5.76,-2.59 -5.76,-5.76l0 -10.41 7.33 0c1.45,1.64 3.56,2.68 5.91,2.68 4.35,0 7.88,-3.53 7.88,-7.87 0,-4.35 -3.53,-7.88 -7.88,-7.88 -2.37,0 -4.5,1.06 -5.95,2.72l-7.29 0 0 -12.18 7.33 0c1.45,1.64 3.56,2.67 5.91,2.67 4.35,0 7.88,-3.52 7.88,-7.87 0,-4.35 -3.53,-7.87 -7.88,-7.87 -2.37,0 -4.5,1.05 -5.95,2.72l-7.29 0 0 -12.19 7.33 0c1.45,1.64 3.56,2.67 5.91,2.67 4.35,0 7.88,-3.52 7.88,-7.87 0,-4.35 -3.53,-7.87 -7.88,-7.87 -2.37,0 -4.5,1.05 -5.95,2.72l-7.29 0 0 -12.17 7.33 0c1.45,1.64 3.56,2.68 5.91,2.68 4.35,0 7.88,-3.53 7.88,-7.88 0,-4.34 -3.53,-7.87 -7.88,-7.87 -2.37,0 -4.5,1.05 -5.95,2.72l-7.29 0 0 -12.16 7.33 0c1.45,1.64 3.56,2.68 5.91,2.68 4.35,0 7.88,-3.53 7.88,-7.88 0,-4.34 -3.53,-7.87 -7.88,-7.87 -2.37,0 -4.5,1.06 -5.95,2.72l-7.29 0 0 -11.9c0,-3.17 2.59,-5.76 5.76,-5.76z"/>
   <path class="fil2" d="M32.98 48.32l14.3 0c1.9,0 3.46,1.37 3.46,3.04l0 0.45c0,1.67 -1.56,3.04 -3.46,3.04l-14.3 0c-1.9,0 -3.45,-1.37 -3.45,-3.04l0 -0.45c0,-1.67 1.55,-3.04 3.45,-3.04z"/>
   <path class="fil2" d="M32.98 70.85l14.3 0c1.9,0 3.46,1.37 3.46,3.04l0 0.45c0,1.68 -1.56,3.04 -3.46,3.04l-14.3 0c-1.9,0 -3.45,-1.36 -3.45,-3.04l0 -0.45c0,-1.67 1.55,-3.04 3.45,-3.04z"/>
   <path class="fil2" d="M32.98 93.37l14.3 0c1.9,0 3.46,1.37 3.46,3.04l0 0.45c0,1.67 -1.56,3.04 -3.46,3.04l-14.3 0c-1.9,0 -3.45,-1.37 -3.45,-3.04l0 -0.45c0,-1.67 1.55,-3.04 3.45,-3.04z"/>
   <path class="fil2" d="M32.98 115.86l14.3 0c1.9,0 3.46,1.36 3.46,3.03l0 0.45c0,1.68 -1.56,3.04 -3.46,3.04l-14.3 0c-1.9,0 -3.45,-1.36 -3.45,-3.04l0 -0.45c0,-1.67 1.55,-3.03 3.45,-3.03z"/>
   <path class="fil2" d="M32.98 138.45l14.3 0c1.9,0 3.46,1.36 3.46,3.04l0 0.45c0,1.67 -1.56,3.03 -3.46,3.03l-14.3 0c-1.9,0 -3.45,-1.36 -3.45,-3.03l0 -0.45c0,-1.68 1.55,-3.04 3.45,-3.04z"/>
  </g>
  <path class="fil0" d="M140 59.52c3.83,1.1 6.64,4.63 6.64,8.82l-18.35 0c0,-4.19 2.81,-7.72 6.64,-8.82 -1.77,-0.92 -2.97,-2.76 -2.97,-4.88 0,-3.04 2.47,-5.5 5.5,-5.5 3.04,0 5.51,2.46 5.51,5.5 0,2.12 -1.2,3.96 -2.97,4.88z"/>
  <g id="_1957788740672">
   <path class="fil0" d="M75.5 49.42l39.94 0c0.63,0 1.15,0.78 1.15,1.73l0 0c0,0.95 -0.52,1.73 -1.15,1.73l-39.94 0c-0.63,0 -1.15,-0.78 -1.15,-1.73l0 0c0,-0.95 0.52,-1.73 1.15,-1.73z"/>
   <path class="fil0" d="M75.5 64.59l39.94 0c0.63,0 1.15,0.78 1.15,1.73l0 0c0,0.95 -0.52,1.73 -1.15,1.73l-39.94 0c-0.63,0 -1.15,-0.78 -1.15,-1.73l0 0c0,-0.95 0.52,-1.73 1.15,-1.73z"/>
   <path class="fil0" d="M75.5 57.01l39.94 0c0.63,0 1.15,0.77 1.15,1.73l0 0c0,0.95 -0.52,1.72 -1.15,1.72l-39.94 0c-0.63,0 -1.15,-0.77 -1.15,-1.72l0 0c0,-0.96 0.52,-1.73 1.15,-1.73z"/>
  </g>
  <path class="fil0" d="M140 140.83c3.83,1.1 6.64,4.63 6.64,8.82l-18.35 0c0,-4.19 2.81,-7.72 6.64,-8.82 -1.77,-0.91 -2.97,-2.76 -2.97,-4.88 0,-3.04 2.47,-5.5 5.5,-5.5 3.04,0 5.51,2.46 5.51,5.5 0,2.12 -1.2,3.97 -2.97,4.88z"/>
  <path class="fil0" d="M140 100.18c3.83,1.1 6.64,4.63 6.64,8.81l-18.35 0c0,-4.18 2.81,-7.71 6.64,-8.81 -1.77,-0.92 -2.97,-2.76 -2.97,-4.89 0,-3.03 2.47,-5.5 5.5,-5.5 3.04,0 5.51,2.47 5.51,5.5 0,2.13 -1.2,3.97 -2.97,4.89z"/>
  <g id="_1957788739568">
   <path class="fil0" d="M75.5 90.08l39.94 0c0.63,0 1.15,0.78 1.15,1.73l0 0c0,0.95 -0.52,1.73 -1.15,1.73l-39.94 0c-0.63,0 -1.15,-0.78 -1.15,-1.73l0 0c0,-0.95 0.52,-1.73 1.15,-1.73z"/>
   <path class="fil0" d="M75.5 105.25l39.94 0c0.63,0 1.15,0.78 1.15,1.73l0 0c0,0.95 -0.52,1.72 -1.15,1.72l-39.94 0c-0.63,0 -1.15,-0.77 -1.15,-1.72l0 0c0,-0.95 0.52,-1.73 1.15,-1.73z"/>
   <path class="fil0" d="M75.5 97.66l39.94 0c0.63,0 1.15,0.78 1.15,1.73l0 0c0,0.95 -0.52,1.73 -1.15,1.73l-39.94 0c-0.63,0 -1.15,-0.78 -1.15,-1.73l0 0c0,-0.95 0.52,-1.73 1.15,-1.73z"/>
  </g>
  <g id="_1957788739664">
   <path class="fil0" d="M75.5 130.74l39.94 0c0.63,0 1.15,0.77 1.15,1.72l0 0.01c0,0.95 -0.52,1.72 -1.15,1.72l-39.94 0c-0.63,0 -1.15,-0.77 -1.15,-1.72l0 -0.01c0,-0.95 0.52,-1.72 1.15,-1.72z"/>
   <path class="fil0" d="M75.5 145.9l39.94 0c0.63,0 1.15,0.78 1.15,1.73l0 0c0,0.95 -0.52,1.73 -1.15,1.73l-39.94 0c-0.63,0 -1.15,-0.78 -1.15,-1.73l0 0c0,-0.95 0.52,-1.73 1.15,-1.73z"/>
   <path class="fil0" d="M75.5 138.32l39.94 0c0.63,0 1.15,0.78 1.15,1.73l0 0c0,0.95 -0.52,1.73 -1.15,1.73l-39.94 0c-0.63,0 -1.15,-0.78 -1.15,-1.73l0 0c0,-0.95 0.52,-1.73 1.15,-1.73z"/>
  </g>
 </g>
</svg>
